<?xml version="1.0" encoding="utf-8"?>
<!-- Generator: Adobe Illustrator 21.0.0, SVG Export Plug-In . SVG Version: 6.00 Build 0)  -->
<svg version="1.1" id="Livello_1" xmlns="http://www.w3.org/2000/svg" xmlns:xlink="http://www.w3.org/1999/xlink" x="0px" y="0px"
	 viewBox="0 0 274 50" style="enable-background:new 0 0 274 50;" xml:space="preserve">
<style type="text/css">
	.st0{fill:#3F3F3F;}
	.st1{fill:none;stroke:#EC172D;stroke-width:10.2079;stroke-miterlimit:10;}
	.st2{fill:none;stroke:#FFFFFF;stroke-width:10.2079;stroke-miterlimit:10;}
	.st3{fill:none;stroke:#01A84C;stroke-width:10.2079;stroke-miterlimit:10;}
	.st4{font-family:'OpenSansLight-Italic';}
	.st5{font-size:19.9037px;}
</style>
<g>
	<g>
		<g>
			<path class="st0" d="M12.9,8C9.4,8,7,9.4,7,11.7C7,18.8,22.4,15,22.4,25c0,4.5-4.1,7.4-9.9,7.4c-3.9,0-7.9-1.7-10.5-4.2l1.4-2.7
				c2.5,2.4,6,3.8,9.1,3.8c3.9,0,6.4-1.6,6.4-4.3c0-7.3-15.4-3.5-15.4-13.3c0-4.3,3.8-7,9.4-7c3.1,0,6.4,1.1,8.7,2.5L20.4,10
				C18,8.6,15,8,12.9,8z"/>
			<path class="st0" d="M39,31c-1.4,1-3,1.6-4.7,1.6c-3,0-5.3-1.8-5.3-5.9V14.9h-3v-2.4h3V7.1h3v5.4h6.6v2.4h-6.6v11.3
				c0,2.5,1,3.5,2.7,3.5c1.1,0,2.1-0.4,3.2-1.1L39,31z"/>
			<path class="st0" d="M61,23.2H44.3c0.5,4.1,3.5,6.7,7.4,6.7c2.5,0,4.8-1,6.3-2.6l1.7,1.8c-1.9,2.1-4.9,3.3-8.2,3.3
				c-6.1,0-10.3-4.3-10.3-10.4s4.2-10.4,10.1-10.4C58.1,11.7,61.3,16.3,61,23.2z M58.4,20.9c-0.2-3.9-2.9-6.6-6.9-6.6
				c-3.9,0-6.8,2.6-7.2,6.6H58.4z"/>
			<path class="st0" d="M84,23.2H67.2c0.5,4.1,3.5,6.7,7.4,6.7c2.5,0,4.8-1,6.3-2.6l1.7,1.8c-1.9,2.1-4.9,3.3-8.2,3.3
				c-6.1,0-10.3-4.3-10.3-10.4s4.2-10.4,10.1-10.4C81,11.7,84.3,16.3,84,23.2z M81.3,20.9c-0.2-3.9-2.9-6.6-6.9-6.6
				c-3.9,0-6.8,2.6-7.2,6.6H81.3z"/>
			<path class="st0" d="M123.3,19.7v12.7h-3.1V20.5c0-3.7-2.1-5.9-5.7-5.9c-4.3,0.1-6.7,3.2-6.7,7.6v10.1h-3.1V20.6
				c0-3.7-2.1-5.9-5.7-5.9c-4.2,0.1-6.8,3.2-6.8,7.6v10.1h-3V11.8h3v4.7c1.3-3.2,4.2-4.8,7.9-4.8c3.8,0,6.6,1.9,7.4,5.4
				c1.3-3.6,4.2-5.3,8.1-5.4C120.4,11.7,123.3,14.8,123.3,19.7z"/>
			<path class="st0" d="M136.1,5v27.3h-7.2V5H136.1z"/>
			<path class="st0" d="M155.2,31.2c-1.6,1-3.6,1.4-5.7,1.4c-4.1,0-7-2.4-7-6.8v-9.1h-3v-4.5h3V6.4h6.9v5.9h5.5v4.7h-5.5v8
				c0,1.6,0.7,2.3,1.9,2.3c0.7,0,1.6-0.2,2.6-0.7L155.2,31.2z"/>
			<path class="st0" d="M177.3,18.6v13.7h-6.8v-2.4c-1.3,1.8-3.5,2.7-6.3,2.7c-4.5,0-7.3-2.7-7.3-6.6c0-4.1,2.9-6.3,8.1-6.4h5.5
				v-0.2c0-2-1.3-3.1-4.1-3.1c-1.8,0-4.1,0.6-6.3,1.7l-1.9-4.7c3.3-1.4,6.3-2.3,9.8-2.3C173.8,10.9,177.3,13.8,177.3,18.6z
				 M170.5,25.3v-1.8h-4.2c-1.9,0-3,0.7-3,2.1c0,1.4,1.1,2.4,2.9,2.4C168.3,27.9,170,26.8,170.5,25.3z"/>
			<path class="st0" d="M189.1,3.4v29h-6.9v-29H189.1z"/>
			<path class="st0" d="M201.5,11.2v21.1h-6.9V11.2H201.5z M201.3,5.3c0,1.8-1.3,3.1-3.1,3.1s-3.2-1.3-3.2-3.1
				c0-1.9,1.3-3.2,3.2-3.2C200,2.1,201.3,3.4,201.3,5.3z"/>
			<path class="st0" d="M225.6,18.6v13.7h-6.8v-2.4c-1.3,1.8-3.5,2.7-6.3,2.7c-4.5,0-7.3-2.7-7.3-6.6c0-4.1,2.9-6.3,8.1-6.4h5.5
				v-0.2c0-2-1.3-3.1-4.1-3.1c-1.8,0-4.1,0.6-6.3,1.7l-1.9-4.7c3.3-1.4,6.3-2.3,9.8-2.3C222.2,10.9,225.6,13.8,225.6,18.6z
				 M218.8,25.3v-1.8h-4.2c-1.9,0-3,0.7-3,2.1c0,1.4,1.1,2.4,2.9,2.4C216.7,27.9,218.4,26.8,218.8,25.3z"/>
		</g>
		<g>
			<line class="st1" x1="149.1" y1="43.9" x2="225.5" y2="43.9"/>
			<line class="st2" x1="80.6" y1="43.9" x2="149.1" y2="43.9"/>
			<line class="st3" x1="3.1" y1="43.9" x2="80.6" y2="43.9"/>
		</g>
	</g>
	<text transform="matrix(1 0 0 1 234.3008 32.5732)" class="st0 st4 st5">Beta</text>
</g>
</svg>
