<?xml version="1.0" encoding="utf-8"?>
<!-- Generator: Adobe Illustrator 21.0.0, SVG Export Plug-In . SVG Version: 6.00 Build 0)  -->
<svg version="1.1" id="Livello_1" xmlns="http://www.w3.org/2000/svg" xmlns:xlink="http://www.w3.org/1999/xlink" x="0px" y="0px"
	 viewBox="0 0 200 50" style="enable-background:new 0 0 200 50;" xml:space="preserve">
<style type="text/css">
	.st0{fill:#3F3F3F;}
	.st1{fill:none;stroke:#EC172D;stroke-width:8.5494;stroke-miterlimit:10;}
	.st2{fill:none;stroke:#FFFFFF;stroke-width:8.5494;stroke-miterlimit:10;}
	.st3{fill:none;stroke:#01A84C;stroke-width:8.5494;stroke-miterlimit:10;}
</style>
<g>
	<path class="st0" d="M15.1,11.4c-2.9,0-4.9,1.2-4.9,3.1c0,6,12.9,2.8,12.9,11.2c0,3.8-3.4,6.2-8.3,6.2c-3.3,0-6.6-1.4-8.8-3.5
		l1.2-2.3c2.1,2,5,3.2,7.6,3.2c3.3,0,5.4-1.3,5.4-3.6c0-6.1-12.9-2.9-12.9-11.1c0-3.6,3.2-5.9,7.9-5.9c2.6,0,5.4,0.9,7.3,2.1
		l-1.1,2.3C19.4,11.9,16.9,11.4,15.1,11.4z"/>
	<path class="st0" d="M37,30.7c-1.2,0.8-2.5,1.3-3.9,1.3c-2.5,0-4.4-1.5-4.4-4.9v-9.9h-2.5v-2h2.5v-4.5h2.5v4.5h5.5v2h-5.5v9.5
		c0,2.1,0.8,2.9,2.3,2.9c0.9,0,1.8-0.3,2.7-0.9L37,30.7z"/>
	<path class="st0" d="M55.4,24.2H41.4c0.4,3.4,2.9,5.6,6.2,5.6c2.1,0,4-0.8,5.3-2.2l1.4,1.5c-1.6,1.8-4.1,2.8-6.9,2.8
		c-5.1,0-8.6-3.6-8.6-8.7s3.5-8.7,8.5-8.7C53,14.5,55.7,18.4,55.4,24.2z M53.2,22.2c-0.2-3.3-2.4-5.5-5.8-5.5c-3.3,0-5.7,2.2-6,5.5
		H53.2z"/>
	<path class="st0" d="M74.7,24.2H60.6c0.4,3.4,2.9,5.6,6.2,5.6c2.1,0,4-0.8,5.3-2.2l1.4,1.5c-1.6,1.8-4.1,2.8-6.9,2.8
		c-5.1,0-8.6-3.6-8.6-8.7s3.5-8.7,8.5-8.7C72.2,14.5,74.9,18.4,74.7,24.2z M72.4,22.2c-0.2-3.3-2.4-5.5-5.8-5.5
		c-3.3,0-5.7,2.2-6,5.5H72.4z"/>
	<path class="st0" d="M107.6,21.2v10.6H105v-9.9c0-3.1-1.8-4.9-4.8-4.9c-3.6,0.1-5.6,2.7-5.6,6.4v8.5H92v-9.9c0-3.1-1.8-4.9-4.8-4.9
		c-3.5,0.1-5.7,2.7-5.7,6.4v8.5h-2.5V14.6h2.5v3.9c1.1-2.7,3.5-4,6.6-4c3.2,0,5.5,1.6,6.2,4.5c1.1-3,3.5-4.4,6.8-4.5
		C105.2,14.5,107.6,17.1,107.6,21.2z"/>
	<path class="st0" d="M118.3,8.9v22.9h-6V8.9H118.3z"/>
	<path class="st0" d="M134.3,30.9c-1.3,0.8-3,1.2-4.8,1.2c-3.4,0-5.9-2-5.9-5.7v-7.6h-2.5V15h2.5v-4.9h5.8V15h4.6v3.9h-4.6v6.7
		c0,1.3,0.6,1.9,1.6,1.9c0.6,0,1.3-0.2,2.2-0.6L134.3,30.9z"/>
	<path class="st0" d="M152.8,20.3v11.5h-5.7v-2c-1.1,1.5-2.9,2.3-5.3,2.3c-3.8,0-6.1-2.3-6.1-5.5c0-3.4,2.4-5.3,6.8-5.4h4.6V21
		c0-1.7-1.1-2.6-3.4-2.6c-1.5,0-3.4,0.5-5.3,1.4l-1.6-3.9c2.8-1.2,5.3-1.9,8.2-1.9C149.9,13.9,152.8,16.3,152.8,20.3z M147.1,25.9
		v-1.5h-3.5c-1.6,0-2.5,0.6-2.5,1.8c0,1.2,0.9,2,2.4,2C145.3,28.1,146.7,27.2,147.1,25.9z"/>
	<path class="st0" d="M162.7,7.6v24.3h-5.8V7.6H162.7z"/>
	<path class="st0" d="M173.1,14.1v17.7h-5.8V14.1H173.1z M172.9,9.2c0,1.5-1.1,2.6-2.6,2.6c-1.5,0-2.7-1.1-2.7-2.6
		c0-1.6,1.1-2.7,2.7-2.7C171.8,6.5,172.9,7.6,172.9,9.2z"/>
	<path class="st0" d="M193.3,20.3v11.5h-5.7v-2c-1.1,1.5-2.9,2.3-5.3,2.3c-3.8,0-6.1-2.3-6.1-5.5c0-3.4,2.4-5.3,6.8-5.4h4.6V21
		c0-1.7-1.1-2.6-3.4-2.6c-1.5,0-3.4,0.5-5.3,1.4l-1.6-3.9c2.8-1.2,5.3-1.9,8.2-1.9C190.4,13.9,193.3,16.3,193.3,20.3z M187.6,25.9
		v-1.5h-3.5c-1.6,0-2.5,0.6-2.5,1.8c0,1.2,0.9,2,2.4,2C185.8,28.1,187.2,27.2,187.6,25.9z"/>
</g>
<g>
	<line class="st1" x1="129.2" y1="41.5" x2="193.2" y2="41.5"/>
	<line class="st2" x1="71.8" y1="41.5" x2="129.2" y2="41.5"/>
	<line class="st3" x1="6.9" y1="41.5" x2="71.8" y2="41.5"/>
</g>
</svg>
